%TF.GenerationSoftware,KiCad,Pcbnew,(5.1.9)-1*%
%TF.CreationDate,2021-12-07T16:03:42+01:00*%
%TF.ProjectId,max8815_00,6d617838-3831-4355-9f30-302e6b696361,rev?*%
%TF.SameCoordinates,Original*%
%TF.FileFunction,Copper,L1,Top*%
%TF.FilePolarity,Positive*%
%FSLAX46Y46*%
G04 Gerber Fmt 4.6, Leading zero omitted, Abs format (unit mm)*
G04 Created by KiCad (PCBNEW (5.1.9)-1) date 2021-12-07 16:03:42*
%MOMM*%
%LPD*%
G01*
G04 APERTURE LIST*
%TA.AperFunction,SMDPad,CuDef*%
%ADD10R,1.500000X3.600000*%
%TD*%
%TA.AperFunction,ComponentPad*%
%ADD11O,1.700000X1.700000*%
%TD*%
%TA.AperFunction,ComponentPad*%
%ADD12R,1.700000X1.700000*%
%TD*%
%TA.AperFunction,SMDPad,CuDef*%
%ADD13R,1.500000X2.300000*%
%TD*%
%TA.AperFunction,SMDPad,CuDef*%
%ADD14R,0.760000X0.270000*%
%TD*%
%TA.AperFunction,ComponentPad*%
%ADD15C,1.440000*%
%TD*%
%TA.AperFunction,ViaPad*%
%ADD16C,0.800000*%
%TD*%
%TA.AperFunction,Conductor*%
%ADD17C,0.406400*%
%TD*%
%TA.AperFunction,Conductor*%
%ADD18C,0.250000*%
%TD*%
%TA.AperFunction,Conductor*%
%ADD19C,1.270000*%
%TD*%
G04 APERTURE END LIST*
%TO.P,R4,2*%
%TO.N,Net-(D1-Pad2)*%
%TA.AperFunction,SMDPad,CuDef*%
G36*
G01*
X136345900Y-112427600D02*
X136345900Y-112057600D01*
G75*
G02*
X136480900Y-111922600I135000J0D01*
G01*
X136750900Y-111922600D01*
G75*
G02*
X136885900Y-112057600I0J-135000D01*
G01*
X136885900Y-112427600D01*
G75*
G02*
X136750900Y-112562600I-135000J0D01*
G01*
X136480900Y-112562600D01*
G75*
G02*
X136345900Y-112427600I0J135000D01*
G01*
G37*
%TD.AperFunction*%
%TO.P,R4,1*%
%TO.N,/out*%
%TA.AperFunction,SMDPad,CuDef*%
G36*
G01*
X135325900Y-112427600D02*
X135325900Y-112057600D01*
G75*
G02*
X135460900Y-111922600I135000J0D01*
G01*
X135730900Y-111922600D01*
G75*
G02*
X135865900Y-112057600I0J-135000D01*
G01*
X135865900Y-112427600D01*
G75*
G02*
X135730900Y-112562600I-135000J0D01*
G01*
X135460900Y-112562600D01*
G75*
G02*
X135325900Y-112427600I0J135000D01*
G01*
G37*
%TD.AperFunction*%
%TD*%
%TO.P,D1,2*%
%TO.N,Net-(D1-Pad2)*%
%TA.AperFunction,SMDPad,CuDef*%
G36*
G01*
X138405100Y-112057400D02*
X138405100Y-112402400D01*
G75*
G02*
X138257600Y-112549900I-147500J0D01*
G01*
X137962600Y-112549900D01*
G75*
G02*
X137815100Y-112402400I0J147500D01*
G01*
X137815100Y-112057400D01*
G75*
G02*
X137962600Y-111909900I147500J0D01*
G01*
X138257600Y-111909900D01*
G75*
G02*
X138405100Y-112057400I0J-147500D01*
G01*
G37*
%TD.AperFunction*%
%TO.P,D1,1*%
%TO.N,GND*%
%TA.AperFunction,SMDPad,CuDef*%
G36*
G01*
X139375100Y-112057400D02*
X139375100Y-112402400D01*
G75*
G02*
X139227600Y-112549900I-147500J0D01*
G01*
X138932600Y-112549900D01*
G75*
G02*
X138785100Y-112402400I0J147500D01*
G01*
X138785100Y-112057400D01*
G75*
G02*
X138932600Y-111909900I147500J0D01*
G01*
X139227600Y-111909900D01*
G75*
G02*
X139375100Y-112057400I0J-147500D01*
G01*
G37*
%TD.AperFunction*%
%TD*%
D10*
%TO.P,L1,2*%
%TO.N,/Batt*%
X119475000Y-100500000D03*
%TO.P,L1,1*%
%TO.N,Net-(L1-Pad1)*%
X122525000Y-100500000D03*
%TD*%
%TO.P,R1,2*%
%TO.N,Net-(J5-Pad3)*%
%TA.AperFunction,SMDPad,CuDef*%
G36*
G01*
X136240000Y-102185000D02*
X136240000Y-101815000D01*
G75*
G02*
X136375000Y-101680000I135000J0D01*
G01*
X136645000Y-101680000D01*
G75*
G02*
X136780000Y-101815000I0J-135000D01*
G01*
X136780000Y-102185000D01*
G75*
G02*
X136645000Y-102320000I-135000J0D01*
G01*
X136375000Y-102320000D01*
G75*
G02*
X136240000Y-102185000I0J135000D01*
G01*
G37*
%TD.AperFunction*%
%TO.P,R1,1*%
%TO.N,Net-(R1-Pad1)*%
%TA.AperFunction,SMDPad,CuDef*%
G36*
G01*
X135220000Y-102185000D02*
X135220000Y-101815000D01*
G75*
G02*
X135355000Y-101680000I135000J0D01*
G01*
X135625000Y-101680000D01*
G75*
G02*
X135760000Y-101815000I0J-135000D01*
G01*
X135760000Y-102185000D01*
G75*
G02*
X135625000Y-102320000I-135000J0D01*
G01*
X135355000Y-102320000D01*
G75*
G02*
X135220000Y-102185000I0J135000D01*
G01*
G37*
%TD.AperFunction*%
%TD*%
D11*
%TO.P,J4,3*%
%TO.N,GND*%
X126500000Y-117080000D03*
%TO.P,J4,2*%
%TO.N,Net-(J4-Pad2)*%
X126500000Y-114540000D03*
D12*
%TO.P,J4,1*%
%TO.N,/Batt*%
X126500000Y-112000000D03*
%TD*%
D11*
%TO.P,J3,3*%
%TO.N,GND*%
X120500000Y-117080000D03*
%TO.P,J3,2*%
%TO.N,Net-(J3-Pad2)*%
X120500000Y-114540000D03*
D12*
%TO.P,J3,1*%
%TO.N,/Batt*%
X120500000Y-112000000D03*
%TD*%
D11*
%TO.P,OUT,2*%
%TO.N,GND*%
X139500000Y-108040000D03*
D12*
%TO.P,OUT,1*%
%TO.N,/out*%
X139500000Y-105500000D03*
%TD*%
%TO.P,C3,2*%
%TO.N,GND*%
%TA.AperFunction,SMDPad,CuDef*%
G36*
G01*
X138776200Y-110988900D02*
X138776200Y-110648900D01*
G75*
G02*
X138916200Y-110508900I140000J0D01*
G01*
X139196200Y-110508900D01*
G75*
G02*
X139336200Y-110648900I0J-140000D01*
G01*
X139336200Y-110988900D01*
G75*
G02*
X139196200Y-111128900I-140000J0D01*
G01*
X138916200Y-111128900D01*
G75*
G02*
X138776200Y-110988900I0J140000D01*
G01*
G37*
%TD.AperFunction*%
%TO.P,C3,1*%
%TO.N,Net-(C3-Pad1)*%
%TA.AperFunction,SMDPad,CuDef*%
G36*
G01*
X137816200Y-110988900D02*
X137816200Y-110648900D01*
G75*
G02*
X137956200Y-110508900I140000J0D01*
G01*
X138236200Y-110508900D01*
G75*
G02*
X138376200Y-110648900I0J-140000D01*
G01*
X138376200Y-110988900D01*
G75*
G02*
X138236200Y-111128900I-140000J0D01*
G01*
X137956200Y-111128900D01*
G75*
G02*
X137816200Y-110988900I0J140000D01*
G01*
G37*
%TD.AperFunction*%
%TD*%
%TO.P,C2,2*%
%TO.N,GND*%
%TA.AperFunction,SMDPad,CuDef*%
G36*
G01*
X129925000Y-104975000D02*
X129925000Y-107025000D01*
G75*
G02*
X129675000Y-107275000I-250000J0D01*
G01*
X128100000Y-107275000D01*
G75*
G02*
X127850000Y-107025000I0J250000D01*
G01*
X127850000Y-104975000D01*
G75*
G02*
X128100000Y-104725000I250000J0D01*
G01*
X129675000Y-104725000D01*
G75*
G02*
X129925000Y-104975000I0J-250000D01*
G01*
G37*
%TD.AperFunction*%
%TO.P,C2,1*%
%TO.N,/out*%
%TA.AperFunction,SMDPad,CuDef*%
G36*
G01*
X136150000Y-104975000D02*
X136150000Y-107025000D01*
G75*
G02*
X135900000Y-107275000I-250000J0D01*
G01*
X134325000Y-107275000D01*
G75*
G02*
X134075000Y-107025000I0J250000D01*
G01*
X134075000Y-104975000D01*
G75*
G02*
X134325000Y-104725000I250000J0D01*
G01*
X135900000Y-104725000D01*
G75*
G02*
X136150000Y-104975000I0J-250000D01*
G01*
G37*
%TD.AperFunction*%
%TD*%
%TO.P,C1,2*%
%TO.N,GND*%
%TA.AperFunction,SMDPad,CuDef*%
G36*
G01*
X117525000Y-106950000D02*
X118475000Y-106950000D01*
G75*
G02*
X118725000Y-107200000I0J-250000D01*
G01*
X118725000Y-107700000D01*
G75*
G02*
X118475000Y-107950000I-250000J0D01*
G01*
X117525000Y-107950000D01*
G75*
G02*
X117275000Y-107700000I0J250000D01*
G01*
X117275000Y-107200000D01*
G75*
G02*
X117525000Y-106950000I250000J0D01*
G01*
G37*
%TD.AperFunction*%
%TO.P,C1,1*%
%TO.N,/Batt*%
%TA.AperFunction,SMDPad,CuDef*%
G36*
G01*
X117525000Y-105050000D02*
X118475000Y-105050000D01*
G75*
G02*
X118725000Y-105300000I0J-250000D01*
G01*
X118725000Y-105800000D01*
G75*
G02*
X118475000Y-106050000I-250000J0D01*
G01*
X117525000Y-106050000D01*
G75*
G02*
X117275000Y-105800000I0J250000D01*
G01*
X117275000Y-105300000D01*
G75*
G02*
X117525000Y-105050000I250000J0D01*
G01*
G37*
%TD.AperFunction*%
%TD*%
D13*
%TO.P,U1,11*%
%TO.N,GND*%
X123000000Y-106500000D03*
D14*
%TO.P,U1,10*%
%TO.N,/out*%
X124485000Y-105500000D03*
%TO.P,U1,9*%
X124485000Y-106000000D03*
%TO.P,U1,8*%
%TO.N,Net-(J4-Pad2)*%
X124485000Y-106500000D03*
%TO.P,U1,7*%
%TO.N,Net-(C3-Pad1)*%
X124485000Y-107000000D03*
%TO.P,U1,6*%
%TO.N,/FB*%
X124485000Y-107500000D03*
%TO.P,U1,5*%
%TO.N,GND*%
X121515000Y-107500000D03*
%TO.P,U1,4*%
%TO.N,Net-(J3-Pad2)*%
X121515000Y-107000000D03*
%TO.P,U1,3*%
%TO.N,/Batt*%
X121515000Y-106500000D03*
%TO.P,U1,2*%
%TO.N,Net-(L1-Pad1)*%
X121515000Y-106000000D03*
%TO.P,U1,1*%
X121515000Y-105500000D03*
%TD*%
D15*
%TO.P,RV1,3*%
%TO.N,Net-(R1-Pad1)*%
X126920000Y-100000000D03*
%TO.P,RV1,2*%
X129460000Y-100000000D03*
%TO.P,RV1,1*%
%TO.N,/out*%
X132000000Y-100000000D03*
%TD*%
%TO.P,R3,2*%
%TO.N,/out*%
%TA.AperFunction,SMDPad,CuDef*%
G36*
G01*
X135836200Y-110633900D02*
X135836200Y-111003900D01*
G75*
G02*
X135701200Y-111138900I-135000J0D01*
G01*
X135431200Y-111138900D01*
G75*
G02*
X135296200Y-111003900I0J135000D01*
G01*
X135296200Y-110633900D01*
G75*
G02*
X135431200Y-110498900I135000J0D01*
G01*
X135701200Y-110498900D01*
G75*
G02*
X135836200Y-110633900I0J-135000D01*
G01*
G37*
%TD.AperFunction*%
%TO.P,R3,1*%
%TO.N,Net-(C3-Pad1)*%
%TA.AperFunction,SMDPad,CuDef*%
G36*
G01*
X136856200Y-110633900D02*
X136856200Y-111003900D01*
G75*
G02*
X136721200Y-111138900I-135000J0D01*
G01*
X136451200Y-111138900D01*
G75*
G02*
X136316200Y-111003900I0J135000D01*
G01*
X136316200Y-110633900D01*
G75*
G02*
X136451200Y-110498900I135000J0D01*
G01*
X136721200Y-110498900D01*
G75*
G02*
X136856200Y-110633900I0J-135000D01*
G01*
G37*
%TD.AperFunction*%
%TD*%
%TO.P,R2,2*%
%TO.N,GND*%
%TA.AperFunction,SMDPad,CuDef*%
G36*
G01*
X138740000Y-102185000D02*
X138740000Y-101815000D01*
G75*
G02*
X138875000Y-101680000I135000J0D01*
G01*
X139145000Y-101680000D01*
G75*
G02*
X139280000Y-101815000I0J-135000D01*
G01*
X139280000Y-102185000D01*
G75*
G02*
X139145000Y-102320000I-135000J0D01*
G01*
X138875000Y-102320000D01*
G75*
G02*
X138740000Y-102185000I0J135000D01*
G01*
G37*
%TD.AperFunction*%
%TO.P,R2,1*%
%TO.N,Net-(J5-Pad3)*%
%TA.AperFunction,SMDPad,CuDef*%
G36*
G01*
X137720000Y-102185000D02*
X137720000Y-101815000D01*
G75*
G02*
X137855000Y-101680000I135000J0D01*
G01*
X138125000Y-101680000D01*
G75*
G02*
X138260000Y-101815000I0J-135000D01*
G01*
X138260000Y-102185000D01*
G75*
G02*
X138125000Y-102320000I-135000J0D01*
G01*
X137855000Y-102320000D01*
G75*
G02*
X137720000Y-102185000I0J135000D01*
G01*
G37*
%TD.AperFunction*%
%TD*%
D11*
%TO.P,J5,3*%
%TO.N,Net-(J5-Pad3)*%
X132500000Y-117080000D03*
%TO.P,J5,2*%
%TO.N,/FB*%
X132500000Y-114540000D03*
D12*
%TO.P,J5,1*%
%TO.N,/out*%
X132500000Y-112000000D03*
%TD*%
D11*
%TO.P,IN,2*%
%TO.N,GND*%
X114500000Y-108040000D03*
D12*
%TO.P,IN,1*%
%TO.N,/Batt*%
X114500000Y-105500000D03*
%TD*%
D16*
%TO.N,Net-(C3-Pad1)*%
X126275000Y-108000000D03*
X137000000Y-108000000D03*
%TO.N,Net-(J5-Pad3)*%
X134000000Y-111000000D03*
%TD*%
D17*
%TO.N,GND*%
X117410000Y-108040000D02*
X118000000Y-107450000D01*
X114500000Y-108040000D02*
X117410000Y-108040000D01*
D18*
X118000000Y-107450000D02*
X118050000Y-107500000D01*
X121515000Y-107500000D02*
X122000000Y-107500000D01*
D17*
X139010000Y-102000000D02*
X141500000Y-102000000D01*
X141500000Y-102000000D02*
X141500000Y-107500000D01*
X140960000Y-108040000D02*
X139500000Y-108040000D01*
X141500000Y-107500000D02*
X140960000Y-108040000D01*
X139056200Y-110818900D02*
X139076200Y-110818900D01*
D19*
X126500000Y-117080000D02*
X128420000Y-117080000D01*
X128887500Y-116612500D02*
X128887500Y-106000000D01*
X128420000Y-117080000D02*
X128887500Y-116612500D01*
X120500000Y-117080000D02*
X121920000Y-117080000D01*
X121920000Y-117080000D02*
X122500000Y-116500000D01*
X122500000Y-116500000D02*
X122500000Y-108500000D01*
X122500000Y-108500000D02*
X123000000Y-108000000D01*
X123000000Y-108000000D02*
X123000000Y-106500000D01*
X123000000Y-108000000D02*
X121500000Y-108000000D01*
D17*
X139056200Y-112206000D02*
X139080100Y-112229900D01*
X139056200Y-110818900D02*
X139056200Y-112206000D01*
X139056200Y-110818900D02*
X139180600Y-110818900D01*
X139500000Y-110499500D02*
X139500000Y-108040000D01*
X139180600Y-110818900D02*
X139500000Y-110499500D01*
D18*
%TO.N,Net-(C3-Pad1)*%
X124485000Y-107000000D02*
X126000000Y-107000000D01*
X126000000Y-107725000D02*
X126275000Y-108000000D01*
X126000000Y-107000000D02*
X126000000Y-107725000D01*
D17*
X137076200Y-110818900D02*
X138096200Y-110818900D01*
X136586200Y-110818900D02*
X137076200Y-110818900D01*
X137000000Y-110405100D02*
X136586200Y-110818900D01*
X137000000Y-108000000D02*
X137000000Y-110405100D01*
%TO.N,/Batt*%
X117950000Y-105500000D02*
X118000000Y-105550000D01*
X114500000Y-105500000D02*
X117950000Y-105500000D01*
D18*
X118000000Y-105550000D02*
X119050000Y-105550000D01*
X120000000Y-106500000D02*
X121515000Y-106500000D01*
X119050000Y-105550000D02*
X120000000Y-106500000D01*
D19*
X114500000Y-105500000D02*
X114500000Y-103500000D01*
X117500000Y-100500000D02*
X119475000Y-100500000D01*
X114500000Y-103500000D02*
X117500000Y-100500000D01*
%TO.N,/out*%
X135112500Y-106000000D02*
X137000000Y-106000000D01*
X137500000Y-105500000D02*
X139500000Y-105500000D01*
X137000000Y-106000000D02*
X137500000Y-105500000D01*
D17*
X124500000Y-105485000D02*
X124485000Y-105500000D01*
X124485000Y-105500000D02*
X124485000Y-105961799D01*
D19*
X132000000Y-100000000D02*
X132000000Y-101500000D01*
X132000000Y-101500000D02*
X131000000Y-102500000D01*
X124585001Y-105414999D02*
X124585001Y-105500000D01*
X127500000Y-102500000D02*
X124585001Y-105414999D01*
X131000000Y-102500000D02*
X127500000Y-102500000D01*
D17*
X135112500Y-110365200D02*
X135566200Y-110818900D01*
X135112500Y-106000000D02*
X135112500Y-110365200D01*
X132500000Y-112000000D02*
X133183600Y-112000000D01*
X135566200Y-112212900D02*
X135595900Y-112242600D01*
X135566200Y-110818900D02*
X135566200Y-112212900D01*
X132742600Y-112242600D02*
X132500000Y-112000000D01*
X135595900Y-112242600D02*
X132742600Y-112242600D01*
D18*
%TO.N,Net-(J3-Pad2)*%
X119040000Y-114540000D02*
X120500000Y-114540000D01*
X118000000Y-113500000D02*
X119040000Y-114540000D01*
X118000000Y-111000000D02*
X118000000Y-113500000D01*
X120000000Y-109000000D02*
X118000000Y-111000000D01*
X120000000Y-107500000D02*
X120000000Y-109000000D01*
X120500000Y-107000000D02*
X120000000Y-107500000D01*
X121515000Y-107000000D02*
X120500000Y-107000000D01*
%TO.N,Net-(J4-Pad2)*%
X126500000Y-114540000D02*
X125540000Y-114540000D01*
X125540000Y-114540000D02*
X125000000Y-114000000D01*
X125000000Y-114000000D02*
X125000000Y-110000000D01*
X125000000Y-110000000D02*
X127000000Y-110000000D01*
X127000000Y-110000000D02*
X127000000Y-106500000D01*
X127000000Y-106500000D02*
X124075001Y-106500000D01*
D17*
%TO.N,Net-(J5-Pad3)*%
X137000000Y-102000000D02*
X137000000Y-103500000D01*
X136510000Y-102000000D02*
X137000000Y-102000000D01*
X137000000Y-102000000D02*
X137990000Y-102000000D01*
X137000000Y-103500000D02*
X133500000Y-103500000D01*
X133500000Y-103500000D02*
X132000000Y-105000000D01*
X132000000Y-105000000D02*
X132000000Y-107500000D01*
X132000000Y-107500000D02*
X134000000Y-109500000D01*
X134000000Y-109500000D02*
X134000000Y-111000000D01*
D18*
%TO.N,/FB*%
X124485000Y-107500000D02*
X125000000Y-107500000D01*
X131460000Y-114540000D02*
X132500000Y-114540000D01*
X130500000Y-118500000D02*
X130500000Y-115500000D01*
X123960010Y-118460010D02*
X124000000Y-118500000D01*
X130500000Y-115500000D02*
X131460000Y-114540000D01*
X123960010Y-109039990D02*
X123960010Y-118460010D01*
X124000000Y-118500000D02*
X130500000Y-118500000D01*
X124485000Y-108515000D02*
X123960010Y-109039990D01*
X124485000Y-107500000D02*
X124485000Y-108515000D01*
D19*
%TO.N,Net-(L1-Pad1)*%
X122525000Y-100500000D02*
X122525000Y-102475000D01*
X122525000Y-102475000D02*
X120500000Y-104500000D01*
X121414999Y-105399999D02*
X121414999Y-105500000D01*
X120515000Y-104500000D02*
X121414999Y-105399999D01*
X120500000Y-104500000D02*
X120515000Y-104500000D01*
D17*
%TO.N,Net-(R1-Pad1)*%
X126920000Y-100000000D02*
X129460000Y-100000000D01*
X129460000Y-100000000D02*
X129460000Y-98540000D01*
X129460000Y-98540000D02*
X130000000Y-98000000D01*
X130000000Y-98000000D02*
X134000000Y-98000000D01*
X135490000Y-99490000D02*
X135490000Y-102000000D01*
X134000000Y-98000000D02*
X135490000Y-99490000D01*
%TO.N,Net-(D1-Pad2)*%
X138097400Y-112242600D02*
X138110100Y-112229900D01*
X136615900Y-112242600D02*
X138097400Y-112242600D01*
%TD*%
M02*
