%TF.GenerationSoftware,KiCad,Pcbnew,(5.1.9)-1*%
%TF.CreationDate,2021-12-07T16:03:42+01:00*%
%TF.ProjectId,max8815_00,6d617838-3831-4355-9f30-302e6b696361,rev?*%
%TF.SameCoordinates,Original*%
%TF.FileFunction,Paste,Top*%
%TF.FilePolarity,Positive*%
%FSLAX46Y46*%
G04 Gerber Fmt 4.6, Leading zero omitted, Abs format (unit mm)*
G04 Created by KiCad (PCBNEW (5.1.9)-1) date 2021-12-07 16:03:42*
%MOMM*%
%LPD*%
G01*
G04 APERTURE LIST*
%ADD10C,0.010000*%
%ADD11R,1.500000X3.600000*%
%ADD12R,0.760000X0.270000*%
G04 APERTURE END LIST*
D10*
%TO.C,U1*%
G36*
X122526000Y-105773000D02*
G01*
X123474000Y-105773000D01*
X123474000Y-107227000D01*
X122526000Y-107227000D01*
X122526000Y-105773000D01*
G37*
X122526000Y-105773000D02*
X123474000Y-105773000D01*
X123474000Y-107227000D01*
X122526000Y-107227000D01*
X122526000Y-105773000D01*
%TD*%
%TO.C,R4*%
G36*
G01*
X136345900Y-112427600D02*
X136345900Y-112057600D01*
G75*
G02*
X136480900Y-111922600I135000J0D01*
G01*
X136750900Y-111922600D01*
G75*
G02*
X136885900Y-112057600I0J-135000D01*
G01*
X136885900Y-112427600D01*
G75*
G02*
X136750900Y-112562600I-135000J0D01*
G01*
X136480900Y-112562600D01*
G75*
G02*
X136345900Y-112427600I0J135000D01*
G01*
G37*
G36*
G01*
X135325900Y-112427600D02*
X135325900Y-112057600D01*
G75*
G02*
X135460900Y-111922600I135000J0D01*
G01*
X135730900Y-111922600D01*
G75*
G02*
X135865900Y-112057600I0J-135000D01*
G01*
X135865900Y-112427600D01*
G75*
G02*
X135730900Y-112562600I-135000J0D01*
G01*
X135460900Y-112562600D01*
G75*
G02*
X135325900Y-112427600I0J135000D01*
G01*
G37*
%TD*%
%TO.C,D1*%
G36*
G01*
X138405100Y-112057400D02*
X138405100Y-112402400D01*
G75*
G02*
X138257600Y-112549900I-147500J0D01*
G01*
X137962600Y-112549900D01*
G75*
G02*
X137815100Y-112402400I0J147500D01*
G01*
X137815100Y-112057400D01*
G75*
G02*
X137962600Y-111909900I147500J0D01*
G01*
X138257600Y-111909900D01*
G75*
G02*
X138405100Y-112057400I0J-147500D01*
G01*
G37*
G36*
G01*
X139375100Y-112057400D02*
X139375100Y-112402400D01*
G75*
G02*
X139227600Y-112549900I-147500J0D01*
G01*
X138932600Y-112549900D01*
G75*
G02*
X138785100Y-112402400I0J147500D01*
G01*
X138785100Y-112057400D01*
G75*
G02*
X138932600Y-111909900I147500J0D01*
G01*
X139227600Y-111909900D01*
G75*
G02*
X139375100Y-112057400I0J-147500D01*
G01*
G37*
%TD*%
D11*
%TO.C,L1*%
X119475000Y-100500000D03*
X122525000Y-100500000D03*
%TD*%
%TO.C,R1*%
G36*
G01*
X136240000Y-102185000D02*
X136240000Y-101815000D01*
G75*
G02*
X136375000Y-101680000I135000J0D01*
G01*
X136645000Y-101680000D01*
G75*
G02*
X136780000Y-101815000I0J-135000D01*
G01*
X136780000Y-102185000D01*
G75*
G02*
X136645000Y-102320000I-135000J0D01*
G01*
X136375000Y-102320000D01*
G75*
G02*
X136240000Y-102185000I0J135000D01*
G01*
G37*
G36*
G01*
X135220000Y-102185000D02*
X135220000Y-101815000D01*
G75*
G02*
X135355000Y-101680000I135000J0D01*
G01*
X135625000Y-101680000D01*
G75*
G02*
X135760000Y-101815000I0J-135000D01*
G01*
X135760000Y-102185000D01*
G75*
G02*
X135625000Y-102320000I-135000J0D01*
G01*
X135355000Y-102320000D01*
G75*
G02*
X135220000Y-102185000I0J135000D01*
G01*
G37*
%TD*%
%TO.C,C3*%
G36*
G01*
X138776200Y-110988900D02*
X138776200Y-110648900D01*
G75*
G02*
X138916200Y-110508900I140000J0D01*
G01*
X139196200Y-110508900D01*
G75*
G02*
X139336200Y-110648900I0J-140000D01*
G01*
X139336200Y-110988900D01*
G75*
G02*
X139196200Y-111128900I-140000J0D01*
G01*
X138916200Y-111128900D01*
G75*
G02*
X138776200Y-110988900I0J140000D01*
G01*
G37*
G36*
G01*
X137816200Y-110988900D02*
X137816200Y-110648900D01*
G75*
G02*
X137956200Y-110508900I140000J0D01*
G01*
X138236200Y-110508900D01*
G75*
G02*
X138376200Y-110648900I0J-140000D01*
G01*
X138376200Y-110988900D01*
G75*
G02*
X138236200Y-111128900I-140000J0D01*
G01*
X137956200Y-111128900D01*
G75*
G02*
X137816200Y-110988900I0J140000D01*
G01*
G37*
%TD*%
%TO.C,C2*%
G36*
G01*
X129925000Y-104975000D02*
X129925000Y-107025000D01*
G75*
G02*
X129675000Y-107275000I-250000J0D01*
G01*
X128100000Y-107275000D01*
G75*
G02*
X127850000Y-107025000I0J250000D01*
G01*
X127850000Y-104975000D01*
G75*
G02*
X128100000Y-104725000I250000J0D01*
G01*
X129675000Y-104725000D01*
G75*
G02*
X129925000Y-104975000I0J-250000D01*
G01*
G37*
G36*
G01*
X136150000Y-104975000D02*
X136150000Y-107025000D01*
G75*
G02*
X135900000Y-107275000I-250000J0D01*
G01*
X134325000Y-107275000D01*
G75*
G02*
X134075000Y-107025000I0J250000D01*
G01*
X134075000Y-104975000D01*
G75*
G02*
X134325000Y-104725000I250000J0D01*
G01*
X135900000Y-104725000D01*
G75*
G02*
X136150000Y-104975000I0J-250000D01*
G01*
G37*
%TD*%
%TO.C,C1*%
G36*
G01*
X117525000Y-106950000D02*
X118475000Y-106950000D01*
G75*
G02*
X118725000Y-107200000I0J-250000D01*
G01*
X118725000Y-107700000D01*
G75*
G02*
X118475000Y-107950000I-250000J0D01*
G01*
X117525000Y-107950000D01*
G75*
G02*
X117275000Y-107700000I0J250000D01*
G01*
X117275000Y-107200000D01*
G75*
G02*
X117525000Y-106950000I250000J0D01*
G01*
G37*
G36*
G01*
X117525000Y-105050000D02*
X118475000Y-105050000D01*
G75*
G02*
X118725000Y-105300000I0J-250000D01*
G01*
X118725000Y-105800000D01*
G75*
G02*
X118475000Y-106050000I-250000J0D01*
G01*
X117525000Y-106050000D01*
G75*
G02*
X117275000Y-105800000I0J250000D01*
G01*
X117275000Y-105300000D01*
G75*
G02*
X117525000Y-105050000I250000J0D01*
G01*
G37*
%TD*%
D12*
%TO.C,U1*%
X124485000Y-105500000D03*
X124485000Y-106000000D03*
X124485000Y-106500000D03*
X124485000Y-107000000D03*
X124485000Y-107500000D03*
X121515000Y-107500000D03*
X121515000Y-107000000D03*
X121515000Y-106500000D03*
X121515000Y-106000000D03*
X121515000Y-105500000D03*
%TD*%
%TO.C,R3*%
G36*
G01*
X135836200Y-110633900D02*
X135836200Y-111003900D01*
G75*
G02*
X135701200Y-111138900I-135000J0D01*
G01*
X135431200Y-111138900D01*
G75*
G02*
X135296200Y-111003900I0J135000D01*
G01*
X135296200Y-110633900D01*
G75*
G02*
X135431200Y-110498900I135000J0D01*
G01*
X135701200Y-110498900D01*
G75*
G02*
X135836200Y-110633900I0J-135000D01*
G01*
G37*
G36*
G01*
X136856200Y-110633900D02*
X136856200Y-111003900D01*
G75*
G02*
X136721200Y-111138900I-135000J0D01*
G01*
X136451200Y-111138900D01*
G75*
G02*
X136316200Y-111003900I0J135000D01*
G01*
X136316200Y-110633900D01*
G75*
G02*
X136451200Y-110498900I135000J0D01*
G01*
X136721200Y-110498900D01*
G75*
G02*
X136856200Y-110633900I0J-135000D01*
G01*
G37*
%TD*%
%TO.C,R2*%
G36*
G01*
X138740000Y-102185000D02*
X138740000Y-101815000D01*
G75*
G02*
X138875000Y-101680000I135000J0D01*
G01*
X139145000Y-101680000D01*
G75*
G02*
X139280000Y-101815000I0J-135000D01*
G01*
X139280000Y-102185000D01*
G75*
G02*
X139145000Y-102320000I-135000J0D01*
G01*
X138875000Y-102320000D01*
G75*
G02*
X138740000Y-102185000I0J135000D01*
G01*
G37*
G36*
G01*
X137720000Y-102185000D02*
X137720000Y-101815000D01*
G75*
G02*
X137855000Y-101680000I135000J0D01*
G01*
X138125000Y-101680000D01*
G75*
G02*
X138260000Y-101815000I0J-135000D01*
G01*
X138260000Y-102185000D01*
G75*
G02*
X138125000Y-102320000I-135000J0D01*
G01*
X137855000Y-102320000D01*
G75*
G02*
X137720000Y-102185000I0J135000D01*
G01*
G37*
%TD*%
M02*
